<svg width="200" height="200" viewBox="0 0 100 100" fill="none" xmlns="http://www.w3.org/2000/svg">
  <circle cx="50" cy="50" r="42" stroke="#e05a3a" stroke-width="2"/>
  <path d="M35 45C35 38 40 32 47 32C50 32 52 34 52 37" stroke="#e05a3a" stroke-width="2" stroke-linecap="round" stroke-linejoin="round"/>
  <path d="M65 45C65 38 60 32 53 32C50 32 48 34 48 37" stroke="#e05a3a" stroke-width="2" stroke-linecap="round" stroke-linejoin="round"/>
  <path d="M38 52C35 55 33 59 33 63C33 70 38 76 45 76" stroke="#e05a3a" stroke-width="2" stroke-linecap="round" stroke-linejoin="round"/>
  <path d="M62 52C65 55 67 59 67 63C67 70 62 76 55 76" stroke="#e05a3a" stroke-width="2" stroke-linecap="round" stroke-linejoin="round"/>
  <path d="M45 76L50 70L55 76" stroke="#e05a3a" stroke-width="2" stroke-linecap="round" stroke-linejoin="round"/>
</svg>
