<svg width="200" height="200" viewBox="0 0 100 100" fill="none" xmlns="http://www.w3.org/2000/svg">
  <circle cx="50" cy="50" r="42" stroke="#e05a3a" stroke-width="2"/>
  <circle cx="50" cy="50" r="42" stroke="#e05a3a" stroke-width="2"/>
  <rect x="32" y="38" width="36" height="32" rx="2" stroke="#e05a3a" stroke-width="2"/>
  <line x1="40" y1="34" x2="40" y2="42" stroke="#e05a3a" stroke-width="2" stroke-linecap="round"/>
  <line x1="50" y1="34" x2="50" y2="42" stroke="#e05a3a" stroke-width="2" stroke-linecap="round"/>
  <line x1="60" y1="34" x2="60" y2="42" stroke="#e05a3a" stroke-width="2" stroke-linecap="round"/>
  <rect x="32" y="38" width="36" height="8" fill="#e05a3a" fill-opacity="0.15"/>
  <circle cx="40" cy="52" r="1.5" fill="#e05a3a"/>
  <circle cx="45" cy="52" r="1.5" fill="#e05a3a"/>
  <circle cx="50" cy="52" r="1.5" fill="#e05a3a"/>
  <circle cx="55" cy="52" r="1.5" fill="#e05a3a"/>
  <circle cx="60" cy="52" r="1.5" fill="#e05a3a"/>
  <circle cx="40" cy="58" r="1.5" fill="#e05a3a"/>
  <circle cx="45" cy="58" r="1.5" fill="#e05a3a"/>
  <circle cx="50" cy="58" r="1.5" fill="#e05a3a"/>
  <circle cx="55" cy="58" r="1.5" fill="#e05a3a"/>
  <circle cx="60" cy="58" r="1.5" fill="#e05a3a"/>
  <circle cx="40" cy="64" r="1.5" fill="#e05a3a"/>
  <circle cx="45" cy="64" r="1.5" fill="#e05a3a"/>
  <circle cx="50" cy="64" r="1.5" fill="#e05a3a"/>
  <circle cx="55" cy="64" r="1.5" fill="#e05a3a"/>
  <circle cx="60" cy="64" r="1.5" fill="#e05a3a"/>
</svg>
