<svg width="1200" height="630" viewBox="0 0 1200 630" xmlns="http://www.w3.org/2000/svg">
  <!-- Background -->
  <rect width="1200" height="630" fill="#f8f6f2"/>
  
  <!-- Solé - Large centered -->
  <g transform="translate(450, 180) scale(2.5)">
    <ellipse cx="30" cy="38" rx="14" ry="17" fill="#1a1a1a"/>
    <ellipse cx="30" cy="42" rx="9" ry="11" fill="#2a2a2a"/>
    <circle cx="30" cy="20" r="10" fill="#1a1a1a"/>
    <path d="M25 21 L20 25 L20 28 L26 27 L27 24 Z" fill="#e05a3a"/>
    <path d="M20 25 L20 28 L26 27 L24 26 Z" fill="#c94e30"/>
    <circle cx="28" cy="18" r="2.5" fill="#fff"/>
    <circle cx="28.5" cy="17.5" r="1.2" fill="#1a1a1a"/>
    <circle cx="29" cy="17" r=".4" fill="#fff"/>
    <line x1="25" y1="15" x2="31" y2="15.5" stroke="#1a1a1a" stroke-width="1" stroke-linecap="round"/>
    <ellipse cx="20" cy="36" rx="4" ry="10" fill="#2a2a2a" transform="rotate(-8 20 36)"/>
    <ellipse cx="40" cy="36" rx="4" ry="10" fill="#2a2a2a" transform="rotate(8 40 36)"/>
    <rect x="38" y="32" width="8" height="6" rx=".8" fill="#555" transform="rotate(12 42 35)"/>
    <rect x="39" y="33" width="6.5" height="4" rx=".4" fill="#4a9eff" opacity=".5" transform="rotate(12 42 35)"/>
    <line x1="26" y1="55" x2="24" y2="65" stroke="#e05a3a" stroke-width="2" stroke-linecap="round"/>
    <line x1="34" y1="55" x2="36" y2="65" stroke="#e05a3a" stroke-width="2" stroke-linecap="round"/>
    <path d="M20 63 L26 63 L28 67 L19 67 L18.5 65 Z" fill="#e05a3a"/>
    <path d="M19 67 L28 67 L28 69 L19 69 Z" fill="#c94e30"/>
    <line x1="21" y1="64.5" x2="21" y2="66" stroke="#fff" stroke-width=".4"/>
    <line x1="23" y1="64.5" x2="23" y2="66" stroke="#fff" stroke-width=".4"/>
    <line x1="25" y1="64.5" x2="25" y2="66" stroke="#fff" stroke-width=".4"/>
    <path d="M32 63 L40 63 L41 67 L31 67 Z" fill="#1a1a1a"/>
    <path d="M31 67 L41 67 L41 69 L31 69 Z" fill="#111"/>
    <ellipse cx="35" cy="65" rx="1.2" ry=".6" fill="#333"/>
  </g>
  
  <!-- Brand name -->
  <text x="600" y="520" font-family="Playfair Display, Georgia, serif" font-size="48" font-weight="600" fill="#1a1a1a" text-anchor="middle">Odd Shoes</text>
  
  <!-- Tagline -->
  <text x="600" y="560" font-family="DM Sans, sans-serif" font-size="18" font-weight="400" fill="#666" text-anchor="middle" letter-spacing="2">CHRISTIAN FOUNDERS STARTUP ACCELERATOR</text>
</svg>
