<svg width="100%" height="100%" viewBox="0 0 254 45" fill="none" xmlns="http://www.w3.org/2000/svg">
<g clip-path="url(#clip0_467_1235)">
<path d="M79.1395 10.8301H65.6895V34.1601H79.1395C85.5795 34.1601 90.7995 28.9401 90.7995 22.5001C90.7995 16.0601 85.5795 10.8401 79.1395 10.8401V10.8301ZM79.1395 30.5301H69.7295V14.4701H79.1395C83.5694 14.4701 87.1694 18.0601 87.1694 22.5001C87.1694 26.9401 83.5694 30.5301 79.1395 30.5301Z" fill="currentColor"></path>
<path d="M98.5507 17.7002H94.7207V34.1602H98.5507V17.7002Z" fill="currentColor"></path>
<path d="M115.84 19.8702H115.27C114.89 19.2302 114.3 18.6302 113.49 18.0702C112.68 17.5102 111.5 17.2402 109.94 17.2402C108.56 17.2402 107.3 17.5702 106.14 18.2202C104.98 18.8802 104.06 19.8202 103.37 21.0502C102.68 22.2802 102.34 23.7702 102.34 25.5002V26.0002C102.34 27.7302 102.68 29.2202 103.37 30.4502C104.06 31.6802 104.98 32.6302 106.14 33.2802C107.29 33.9402 108.56 34.2602 109.94 34.2602C110.98 34.2602 111.85 34.1302 112.54 33.8602C113.23 33.5902 113.78 33.2702 114.21 32.8802C114.63 32.4902 114.96 32.1102 115.21 31.7302H115.78V36.5002C115.78 37.1702 115.46 37.5002 114.81 37.5002H104.62V40.8302H116.11C117.18 40.8302 118.02 40.5102 118.64 39.8802C119.26 39.2502 119.57 38.3902 119.57 37.3002V17.7002H115.84V19.8702V19.8702ZM115.81 25.9002C115.81 27.4802 115.35 28.7002 114.44 29.5802C113.53 30.4602 112.39 30.9002 111.01 30.9002C109.63 30.9002 108.48 30.4602 107.56 29.5802C106.64 28.7002 106.18 27.4802 106.18 25.9002V25.5702C106.18 23.9702 106.64 22.7402 107.56 21.8702C108.48 21.0002 109.63 20.5702 111.01 20.5702C112.39 20.5702 113.56 21.0002 114.46 21.8702C115.36 22.7402 115.81 23.9702 115.81 25.5702V25.9002V25.9002Z" fill="currentColor"></path>
<path d="M133.26 17.7002H129.43V34.1602H133.26V17.7002Z" fill="currentColor"></path>
<path d="M150.149 18.2704C149.169 17.6904 148.049 17.4004 146.779 17.4004C145.249 17.4004 144.099 17.6804 143.349 18.2304C142.589 18.7904 142.069 19.3704 141.779 20.0004H141.209V17.7004H137.439V34.1604H141.269V25.8304C141.269 24.1604 141.659 22.8804 142.439 21.9804C143.219 21.0804 144.279 20.6304 145.639 20.6304C146.839 20.6304 147.769 20.9604 148.419 21.6104C149.069 22.2704 149.399 23.2604 149.399 24.5904V34.1504H153.229V24.2904C153.229 22.8904 152.959 21.6804 152.409 20.6604C151.869 19.6404 151.099 18.8404 150.129 18.2604L150.149 18.2704Z" fill="currentColor"></path>
<path d="M172.2 31.5998H168.97L163.7 10.8398H159.57L165.77 34.1598H175.4L181.64 10.8398H177.5L172.2 31.5998Z" fill="currentColor"></path>
<path d="M187.461 17.7002H183.631V34.1602H187.461V17.7002Z" fill="currentColor"></path>
<path d="M202.581 25.0705C201.591 24.7205 200.491 24.4305 199.261 24.2005L198.231 24.0005C197.411 23.8705 196.751 23.6605 196.261 23.3705C195.771 23.0805 195.531 22.6505 195.531 22.0705C195.531 21.4905 195.771 21.0505 196.251 20.7405C196.731 20.4305 197.411 20.2705 198.301 20.2705C199.191 20.2705 199.901 20.4605 200.501 20.8505C201.101 21.2405 201.491 21.9005 201.671 22.8305L205.201 21.7605C204.841 20.3805 204.071 19.2805 202.871 18.4605C201.671 17.6405 200.151 17.2305 198.301 17.2305C196.451 17.2305 194.811 17.6605 193.621 18.5305C192.431 19.4005 191.841 20.6305 191.841 22.2305C191.841 23.2705 192.121 24.1405 192.691 24.8105C193.261 25.4905 194.011 26.0205 194.941 26.4105C195.871 26.8005 196.911 27.1005 198.041 27.3305L199.071 27.5005C200.091 27.7005 200.851 27.9405 201.351 28.2305C201.851 28.5205 202.101 28.9605 202.101 29.5605C202.101 30.1605 201.841 30.6205 201.321 30.9905C200.801 31.3705 200.011 31.5605 198.971 31.5605C198.281 31.5605 197.641 31.4605 197.051 31.2605C196.461 31.0605 195.971 30.7205 195.571 30.2305C195.171 29.7405 194.891 29.0805 194.741 28.2305L191.211 29.1305C191.501 30.9305 192.331 32.3005 193.711 33.2305C195.091 34.1605 196.841 34.6305 198.981 34.6305C201.121 34.6305 202.731 34.1705 203.961 33.2505C205.191 32.3305 205.811 31.0105 205.811 29.3005C205.811 28.1705 205.521 27.2705 204.941 26.6005C204.361 25.9305 203.581 25.4205 202.591 25.0705H202.581Z" fill="currentColor"></path>
<path d="M213.32 17.7002H209.49V34.1602H213.32V17.7002Z" fill="currentColor"></path>
<path d="M230.02 18.2305C228.73 17.5605 227.26 17.2305 225.62 17.2305C223.98 17.2305 222.5 17.5605 221.21 18.2305C219.91 18.9005 218.89 19.8605 218.14 21.1305C217.39 22.4005 217.02 23.9105 217.02 25.6605V26.1905C217.02 27.9405 217.39 29.4505 218.14 30.7105C218.88 31.9705 219.91 32.9305 221.21 33.6105C222.51 34.2905 223.98 34.6305 225.62 34.6305C227.26 34.6305 228.73 34.2905 230.02 33.6105C231.31 32.9305 232.32 31.9705 233.07 30.7105C233.81 29.4605 234.19 27.9505 234.19 26.1905V25.6605C234.19 23.9105 233.82 22.3905 233.07 21.1305C232.33 19.8605 231.31 18.9005 230.02 18.2305ZM230.39 26.0905C230.39 27.7105 229.95 28.9705 229.06 29.8705C228.17 30.7705 227.03 31.2205 225.63 31.2205C224.23 31.2205 223.09 30.7705 222.2 29.8705C221.31 28.9705 220.87 27.7105 220.87 26.0905V25.7605C220.87 24.1405 221.31 22.8805 222.2 21.9805C223.09 21.0805 224.23 20.6305 225.63 20.6305C227.03 20.6305 228.17 21.0805 229.06 21.9805C229.95 22.8805 230.39 24.1405 230.39 25.7605V26.0905Z" fill="currentColor"></path>
<path d="M252.859 20.6704C252.319 19.6504 251.549 18.8504 250.579 18.2704C249.599 17.6904 248.479 17.4004 247.209 17.4004C245.679 17.4004 244.529 17.6804 243.779 18.2304C243.019 18.7904 242.499 19.3704 242.209 20.0004H241.639V17.7004H237.869V34.1604H241.699V25.8304C241.699 24.1604 242.089 22.8804 242.869 21.9804C243.649 21.0804 244.709 20.6304 246.069 20.6304C247.269 20.6304 248.199 20.9604 248.849 21.6104C249.509 22.2704 249.829 23.2604 249.829 24.5904V34.1504H253.659V24.2904C253.659 22.8904 253.389 21.6804 252.839 20.6604L252.859 20.6704Z" fill="currentColor"></path>
<path d="M25.97 0H8.63V3.39H25.97C36.51 3.39 45.08 11.96 45.08 22.5C45.08 33.04 36.51 41.61 25.97 41.61H10.32V38.06H26.46C34.77 38.06 41.53 31.08 41.53 22.5C41.53 13.92 34.77 6.94 26.46 6.94H0.07V10.33H26.46C32.9 10.33 38.14 15.79 38.14 22.51C38.14 29.23 32.9 34.69 26.46 34.69H10.32V22.51H6.93V34.69H3.39V22.51H0V38.07H6.94V45.01H25.97C38.38 45.01 48.47 34.92 48.47 22.51C48.47 10.1 38.37 0 25.97 0Z" fill="currentColor"></path>
<path d="M13.8709 22.5001V31.1301H25.2609C30.4109 31.1301 34.6009 27.2601 34.6009 22.5001C34.6009 17.7401 30.4109 13.8701 25.2609 13.8701H8.63086V17.2601H25.2609C28.5409 17.2601 31.2109 19.6101 31.2109 22.5001C31.2109 25.3901 28.5409 27.7401 25.2609 27.7401H17.2609V22.5001H13.8709V22.5001Z" fill="currentColor"></path>
</g>
<defs>
<clipPath id="clip0_467_1235">
<rect width="253.68" height="45" fill="white"></rect>
</clipPath>
</defs>
</svg>
