<svg width="492" height="172" viewBox="0 0 492 172" fill="none" xmlns="http://www.w3.org/2000/svg">
<g clip-path="url(#clip0_22_1585)">
<path d="M231.3 89.3152H214.489V143.326H199.391V29.255H214.489V75.3502H231.3V29.255H246.398V143.329H231.3V89.3183V89.3152Z" fill="white"/>
<path d="M289.277 89.4727H272.466V143.329H257.368V93.9754C257.368 59.211 260.793 50.6751 274.488 31.4291L276.046 29.255H285.696L287.254 31.4291C301.107 50.8295 304.375 59.211 304.375 93.9754V143.329H289.277V89.4727ZM272.624 75.659H289.122C288.499 63.865 286.632 56.8794 282.897 49.2761L281.339 46.1724H280.404L278.846 49.2761C275.111 56.8824 273.243 63.865 272.621 75.659H272.624Z" fill="#8766FF"/>
<path d="M315.332 29.255H330.43V143.329H315.332V29.255Z" fill="#8766FF"/>
<path d="M358.582 140.379C344.729 120.049 341.307 108.252 341.307 67.7438V29.255H356.405V77.3668C356.405 99.2501 358.118 110.581 362.785 120.825L364.343 124.24H365.278L366.836 120.825C371.506 110.581 373.219 99.2501 373.219 77.3668V29.255H388.317V67.7438C388.317 108.407 384.582 120.201 370.884 140.534L369.016 143.329H360.611L358.588 140.379H358.582Z" fill="white"/>
<path d="M435.237 143.326H399.284V29.255H434.46V43.5319H414.382V75.3471H432.283V89.3152H414.382V129.046H435.237V143.326Z" fill="white"/>
<path d="M460.091 42.2905V143.326H444.993V32.0468C449.196 30.8053 458.378 28.6311 468.184 28.6311C484.059 28.6311 491.997 33.1307 491.997 46.0149V143.326H476.899V49.7393C476.899 43.8408 473.941 41.3578 467.871 41.3578C465.223 41.3578 462.578 41.6666 460.088 42.2874L460.091 42.2905Z" fill="white"/>
<path d="M86.3023 172.003C133.966 172.003 172.605 133.499 172.605 86.0015C172.605 38.5042 133.966 0 86.3023 0C38.6389 0 0 38.5042 0 86.0015C0 133.499 38.6389 172.003 86.3023 172.003Z" fill="#8766FF"/>
<path d="M86.3147 164.77C85.7449 164.77 85.1781 164.687 84.6268 164.517C69.0858 159.761 56.1464 153.035 46.1739 144.524C34.6281 134.672 26.901 122.332 23.2031 107.842C21.6731 102.277 17.8049 67.7994 17.7678 66.0638C17.6779 61.8206 19.3349 59.4766 21.8497 57.2654C23.1783 56.0949 23.9835 55.3908 55.1367 46.8117C69.9282 42.7383 84.6857 38.8131 84.8343 38.773C85.3206 38.6433 85.8192 38.5784 86.3178 38.5784C86.8164 38.5784 87.3151 38.6433 87.8013 38.773C87.95 38.8131 102.707 42.7383 117.499 46.8117C148.652 55.3877 149.457 56.0949 150.786 57.2654C153.301 59.4766 154.955 61.8175 154.868 66.0638C154.831 67.7994 150.962 102.274 149.433 107.842C145.735 122.332 138.004 134.672 126.462 144.524C116.486 153.035 103.55 159.761 88.0088 164.517C87.4575 164.684 86.8908 164.77 86.3209 164.77H86.3147Z" fill="#E3D6FF"/>
<path d="M86.3147 44.3164C86.3147 44.3164 145.156 59.9676 146.977 61.5673C148.578 62.9756 149.154 63.8434 149.11 65.9434C149.076 67.6481 145.032 102.758 143.867 106.365C136.663 134.7 113.851 150.605 86.3147 159.032C58.7788 150.605 35.966 134.7 28.7623 106.365C27.5978 102.758 23.5561 67.6481 23.519 65.9434C23.4756 63.8434 24.0517 62.9756 25.6528 61.5673C27.4739 59.9676 86.3147 44.3164 86.3147 44.3164ZM86.3147 32.8435C85.3175 32.8435 84.3202 32.9732 83.3477 33.2326C83.1991 33.2728 68.4169 37.2041 53.6037 41.2837C44.87 43.6894 37.8211 45.6752 32.6522 47.1915C22.1625 50.2674 20.2485 51.021 18.0403 52.9635C15.1569 55.4989 11.8679 59.2913 12.0103 66.1842C12.0599 68.6054 14.2681 86.6593 14.2898 86.8415C16.4856 104.71 17.2536 108.086 17.6841 109.509C21.7041 125.062 30.029 138.307 42.4264 148.888C53.006 157.914 66.633 165.017 82.9327 170.008C84.0322 170.345 85.1719 170.515 86.3085 170.515C87.4451 170.515 88.5848 170.348 89.6843 170.008C105.984 165.021 119.614 157.914 130.191 148.888C142.588 138.307 150.913 125.062 154.933 109.509C155.363 108.089 156.131 104.71 158.327 86.8415C158.349 86.6593 160.557 68.6054 160.607 66.1842C160.749 59.2913 157.46 55.4989 154.577 52.9665C152.369 51.024 150.458 50.2705 139.965 47.1946C134.796 45.6783 127.75 43.6925 119.013 41.2868C104.2 37.2072 89.4148 33.2759 89.2693 33.2357C88.2968 32.9763 87.2996 32.8466 86.3023 32.8466L86.3147 32.8435Z" fill="#2D1366"/>
<path d="M26.421 61.5673C67.3825 76.3384 107.601 76.9375 146.977 61.5673C150.876 62.1294 149.368 75.7671 144.381 104.065C144.381 104.065 114.972 114.475 102.153 123.539C89.3344 132.6 86.3395 139.187 86.3395 139.187C86.3395 139.187 79.4362 129.197 70.5941 123.539C61.7521 117.882 32.5624 106.995 28.7592 106.365C26.5779 99.5627 18.2337 61.5673 26.4179 61.5673H26.421Z" fill="black"/>
<path d="M33.5627 77.0549C54.9788 81.3321 59.6119 83.7996 79.3618 89.343C79.0552 98.4472 78.3831 104.648 76.6643 109.914C77.0173 112.035 42.5379 100.776 37.0871 93.7746C31.6797 86.8323 31.3638 77.0858 33.5596 77.0549H33.5627Z" fill="#20ECFC"/>
<path d="M142.04 77.0549C120.624 81.3321 115.991 83.7996 96.2407 89.343C96.5473 98.4472 97.2194 104.17 98.9382 109.435C98.5852 111.557 133.065 100.773 138.515 93.7746C143.923 86.8323 144.239 77.0858 142.043 77.0549H142.04Z" fill="#20ECFC"/>
</g>
<defs>
<clipPath id="clip0_22_1585">
<rect width="492" height="172" fill="white"/>
</clipPath>
</defs>
</svg>
