<?xml version="1.0" encoding="UTF-8"?>
<svg xmlns="http://www.w3.org/2000/svg" xmlns:xlink="http://www.w3.org/1999/xlink" width="219.334" height="56.991" viewBox="0 0 219.334 56.991">
  <defs>
    <clipPath id="clip-path">
      <rect id="Rectangle_199" data-name="Rectangle 199" width="219.334" height="56.991" fill="#464545"></rect>
    </clipPath>
  </defs>
  <g id="Group_88" data-name="Group 88" transform="translate(0 0)">
    <g id="Group_88-2" data-name="Group 88" transform="translate(0 0)" clip-path="url(#clip-path)">
      <path id="Path_239" data-name="Path 239" d="M27.426,27.893a.236.236,0,0,0-.062-.224.52.52,0,0,0-.388-.193H4.961A5.08,5.08,0,0,0,.122,32.757a5.08,5.08,0,0,0,4.839,5.282H26.975a.547.547,0,0,0,.407-.207.2.2,0,0,0,.048-.192,13.783,13.783,0,0,1,0-9.748" transform="translate(0.009 3.038)" fill="#464545"></path>
      <path id="Path_240" data-name="Path 240" d="M55.136,27.893a.236.236,0,0,0-.062-.224.52.52,0,0,0-.388-.193H33.942a5.081,5.081,0,0,0-4.84,5.282,5.081,5.081,0,0,0,4.84,5.282H54.685a.547.547,0,0,0,.407-.207.2.2,0,0,0,.048-.192,13.783,13.783,0,0,1,0-9.748" transform="translate(2.215 3.038)" fill="#464545"></path>
      <path id="Path_241" data-name="Path 241" d="M55.136.624A.236.236,0,0,0,55.074.4a.52.52,0,0,0-.388-.193H33.942A5.081,5.081,0,0,0,29.1,5.488a5.081,5.081,0,0,0,4.84,5.282H54.685a.547.547,0,0,0,.407-.207.2.2,0,0,0,.048-.192,13.783,13.783,0,0,1,0-9.748" transform="translate(2.215 0.023)" fill="#464545"></path>
      <path id="Path_242" data-name="Path 242" d="M.4.012A.215.215,0,0,0,.187.077.55.55,0,0,0,0,.478V20.673c0,2.754,2.557,5,5.839,5,3.14,0,5.668-2.241,5.668-5V.478a.579.579,0,0,0-.2-.42.186.186,0,0,0-.185-.05A14.611,14.611,0,0,1,.4.012" transform="translate(0 0)" fill="#464545"></path>
      <path id="Path_243" data-name="Path 243" d="M15.048.012c-.068-.033-.146.006-.217.064a.55.55,0,0,0-.187.4V20.673c0,2.754,2.557,5,5.839,5,3.14,0,5.668-2.241,5.668-5V.478a.579.579,0,0,0-.2-.42.186.186,0,0,0-.185-.05c-3.493,1.39-7.85,1.413-10.716,0" transform="translate(1.114 0)" fill="#464545"></path>
      <path id="Path_244" data-name="Path 244" d="M29.7,23.721a.236.236,0,0,0,.062.224.52.52,0,0,0,.388.193H50.9a5.081,5.081,0,0,0,4.84-5.282,5.081,5.081,0,0,0-4.84-5.282H30.155a.547.547,0,0,0-.407.207.2.2,0,0,0-.048.192,13.783,13.783,0,0,1,0,9.748" transform="translate(2.26 1.501)" fill="#464545"></path>
      <path id="Path_245" data-name="Path 245" d="M29.7,51.1a.236.236,0,0,0,.062.224.52.52,0,0,0,.388.193H50.9a5.3,5.3,0,0,0,0-10.564H30.155a.547.547,0,0,0-.407.207.2.2,0,0,0-.048.192,13.783,13.783,0,0,1,0,9.748" transform="translate(2.26 4.529)" fill="#464545"></path>
      <path id="Path_246" data-name="Path 246" d="M8.438,40.918v9.566a.527.527,0,0,0,.18.382.264.264,0,0,0,.226.068,25.783,25.783,0,0,1,5.249-.617,17.058,17.058,0,0,1,4.543.622.2.2,0,0,0,.194-.053.552.552,0,0,0,.195-.4V40.918Z" transform="translate(0.642 4.525)" fill="#464545"></path>
      <path id="Path_247" data-name="Path 247" d="M63.727,9.795V4.418c0-2.651,1.429-4.089,3.654-4.089,2.3,0,3.654,1.419,3.763,4.015h-1.81c-.108-1.532-.759-2.222-1.971-2.222-1.066,0-1.772.729-1.772,2.3V9.795c0,1.549.706,2.278,1.809,2.278,1.23,0,1.881-.71,2.008-2.2h1.809c-.127,2.577-1.483,4-3.817,4-2.225,0-3.673-1.438-3.673-4.07" transform="translate(4.85 0.036)" fill="#464545"></path>
      <path id="Path_248" data-name="Path 248" d="M72.114,9.5V4.716c0-2.725,1.447-4.387,3.871-4.387s3.872,1.661,3.872,4.387V9.5c0,2.727-1.447,4.387-3.872,4.387s-3.871-1.66-3.871-4.387m5.862,0V4.716c0-1.643-.688-2.539-1.991-2.539-1.32,0-1.99.9-1.99,2.539V9.5c0,1.643.669,2.539,1.99,2.539,1.3,0,1.991-.9,1.991-2.539" transform="translate(5.488 0.036)" fill="#464545"></path>
      <path id="Path_249" data-name="Path 249" d="M87.16,11.824v1.792H81.136V.548h1.827V11.824Z" transform="translate(6.175 0.06)" fill="#464545"></path>
      <path id="Path_250" data-name="Path 250" d="M94.168,11.824v1.792H88.144V.548h1.827V11.824Z" transform="translate(6.708 0.06)" fill="#464545"></path>
      <path id="Path_251" data-name="Path 251" d="M101.538,11.843v1.774H95.152V.548h6.2V2.322H96.978V6.111h4.035V7.848H96.978v3.995Z" transform="translate(7.242 0.061)" fill="#464545"></path>
      <path id="Path_252" data-name="Path 252" d="M102.448,9.754V4.433c0-2.651,1.411-4.07,3.708-4.07,2.243,0,3.6,1.4,3.691,3.977h-1.81c-.072-1.513-.723-2.166-1.881-2.166s-1.846.691-1.846,2.278v5.3c0,1.587.724,2.278,1.9,2.278,1.213,0,1.936-.691,1.936-2.185V8.2h-2.008V6.525h3.8V9.847c-.037,2.558-1.466,4-3.745,4s-3.745-1.438-3.745-4.089" transform="translate(7.797 0.04)" fill="#464545"></path>
      <path id="Path_253" data-name="Path 253" d="M117.52,11.843v1.774h-6.386V.548h6.2V2.322h-4.378V6.111H117V7.848h-4.034v3.995Z" transform="translate(8.458 0.061)" fill="#464545"></path>
      <path id="Path_254" data-name="Path 254" d="M121.492,9.5V4.716c0-2.725,1.447-4.387,3.871-4.387s3.872,1.661,3.872,4.387V9.5c0,2.727-1.447,4.387-3.872,4.387s-3.871-1.66-3.871-4.387m5.862,0V4.716c0-1.643-.688-2.539-1.991-2.539-1.32,0-1.99.9-1.99,2.539V9.5c0,1.643.669,2.539,1.99,2.539,1.3,0,1.991-.9,1.991-2.539" transform="translate(9.246 0.036)" fill="#464545"></path>
      <path id="Path_255" data-name="Path 255" d="M132.735,2.322v3.9h3.817V7.941h-3.817v5.675h-1.827V.548h5.97V2.322Z" transform="translate(9.963 0.06)" fill="#464545"></path>
      <path id="Path_256" data-name="Path 256" d="M147.232,2.34h-2.642V13.617h-1.863V2.34h-2.622V.548h7.127Z" transform="translate(10.663 0.06)" fill="#464545"></path>
      <path id="Path_257" data-name="Path 257" d="M155.449.548V13.616h-1.827V7.885H150.04v5.732h-1.827V.548h1.827V6.112h3.581V.548Z" transform="translate(11.28 0.06)" fill="#464545"></path>
      <path id="Path_258" data-name="Path 258" d="M163.384,11.843v1.774H157V.548h6.2V2.322h-4.378V6.111h4.034V7.848h-4.034v3.995Z" transform="translate(11.948 0.061)" fill="#464545"></path>
      <path id="Path_259" data-name="Path 259" d="M164.261,9.5V4.716c0-2.725,1.446-4.387,3.871-4.387S172,1.99,172,4.716V9.5c0,2.727-1.446,4.387-3.871,4.387s-3.871-1.66-3.871-4.387m5.862,0V4.716c0-1.643-.687-2.539-1.991-2.539-1.321,0-1.991.9-1.991,2.539V9.5c0,1.643.669,2.539,1.991,2.539,1.3,0,1.991-.9,1.991-2.539" transform="translate(12.501 0.036)" fill="#464545"></path>
      <path id="Path_260" data-name="Path 260" d="M179.306,11.824v1.792h-6.023V.548h1.826V11.824Z" transform="translate(13.188 0.06)" fill="#464545"></path>
      <path id="Path_261" data-name="Path 261" d="M179.955,9.5V4.716c0-2.725,1.446-4.387,3.871-4.387S187.7,1.99,187.7,4.716V9.5c0,2.727-1.447,4.387-3.871,4.387s-3.871-1.66-3.871-4.387m5.86,0V4.716c0-1.643-.688-2.539-1.99-2.539-1.321,0-1.991.9-1.991,2.539V9.5c0,1.643.669,2.539,1.991,2.539,1.3,0,1.99-.9,1.99-2.539" transform="translate(13.696 0.036)" fill="#464545"></path>
      <path id="Path_262" data-name="Path 262" d="M188.757,9.754V4.433c0-2.651,1.411-4.07,3.708-4.07,2.243,0,3.6,1.4,3.691,3.977h-1.81c-.072-1.513-.723-2.166-1.881-2.166s-1.846.691-1.846,2.278v5.3c0,1.587.724,2.278,1.9,2.278,1.213,0,1.936-.691,1.936-2.185V8.2h-2.008V6.525h3.8V9.847c-.036,2.558-1.466,4-3.744,4s-3.745-1.438-3.745-4.089" transform="translate(14.365 0.04)" fill="#464545"></path>
      <path id="Path_263" data-name="Path 263" d="M199.484,9.323,196.408.548h1.9l1.429,4.35c.181.56.453,1.4.634,2.053h.036l.651-2.091L202.469.548h1.918l-3.076,8.775v4.294h-1.827Z" transform="translate(14.948 0.06)" fill="#464545"></path>
      <path id="Path_264" data-name="Path 264" d="M68.974,30.189H65.6l-.583,2.69H63.087l3.208-13.355h1.986l3.208,13.355H69.576ZM68.591,28.4l-.8-3.587c-.183-.877-.383-2.156-.473-2.862h-.055c-.091.706-.273,1.985-.475,2.862L66,28.4Z" transform="translate(4.801 2.159)" fill="#464545"></path>
      <path id="Path_265" data-name="Path 265" d="M79.9,19.524V32.88H78.057l-2.843-6.545c-.383-.992-.911-2.384-1.22-3.243l-.055.038c.127,1.335.218,3.338.218,4.6V32.88H72.334V19.524h1.841l2.933,6.811c.384.9.858,2.137,1.166,2.939l.055-.039c-.145-1.316-.254-3.32-.254-4.5V19.524Z" transform="translate(5.505 2.159)" fill="#464545"></path>
      <path id="Path_266" data-name="Path 266" d="M81.44,19.524h3.171c2.478,0,3.936,1.526,3.936,4.159v5c0,2.652-1.458,4.2-3.918,4.2H81.44Zm3.19,11.523c1.312,0,2.06-.821,2.06-2.4V23.721c0-1.565-.73-2.366-2.06-2.366H83.281v9.692Z" transform="translate(6.198 2.159)" fill="#464545"></path>
      <path id="Path_267" data-name="Path 267" d="M92.3,29.241h1.877c.018,1.374.73,2.041,1.86,2.041a1.677,1.677,0,0,0,1.823-1.831c0-2.652-5.341-2.805-5.341-6.773a3.276,3.276,0,0,1,3.5-3.377c2.187,0,3.5,1.469,3.554,3.74H97.695c-.037-1.279-.675-1.889-1.658-1.889a1.48,1.48,0,0,0-1.64,1.565c0,2.613,5.359,2.613,5.359,6.754a3.53,3.53,0,0,1-3.719,3.683c-2.26,0-3.718-1.469-3.736-3.912" transform="translate(7.025 2.134)" fill="#464545"></path>
      <path id="Path_268" data-name="Path 268" d="M100.672,28.668V23.783c0-2.785,1.457-4.483,3.9-4.483s3.9,1.7,3.9,4.483v4.884c0,2.785-1.458,4.483-3.9,4.483s-3.9-1.7-3.9-4.483m5.906,0V23.783c0-1.679-.693-2.594-2.006-2.594-1.33,0-2,.915-2,2.594v4.884c0,1.679.675,2.6,2,2.6,1.313,0,2.006-.916,2.006-2.6" transform="translate(7.662 2.134)" fill="#464545"></path>
      <path id="Path_269" data-name="Path 269" d="M109.541,28.973v-5.5c0-2.709,1.44-4.178,3.681-4.178,2.315,0,3.682,1.45,3.791,4.1h-1.822c-.11-1.565-.766-2.271-1.988-2.271-1.075,0-1.786.744-1.786,2.347v5.5c0,1.584.711,2.328,1.823,2.328,1.24,0,1.9-.725,2.023-2.251h1.823c-.127,2.633-1.495,4.083-3.846,4.083-2.242,0-3.7-1.468-3.7-4.159" transform="translate(8.337 2.134)" fill="#464545"></path>
      <rect id="Rectangle_196" data-name="Rectangle 196" width="1.841" height="13.356" transform="translate(127.147 21.682)" fill="#464545"></rect>
      <path id="Path_270" data-name="Path 270" d="M127.154,30.189h-3.371l-.583,2.69h-1.933l3.209-13.355h1.986l3.208,13.355h-1.913Zm-.382-1.794-.8-3.587c-.183-.877-.383-2.156-.475-2.862h-.055c-.091.706-.273,1.985-.473,2.862l-.784,3.587Z" transform="translate(9.229 2.159)" fill="#464545"></path>
      <path id="Path_271" data-name="Path 271" d="M136.582,31.048v1.831h-6.069V19.524h1.84V31.048Z" transform="translate(9.933 2.159)" fill="#464545"></path>
      <path id="Path_272" data-name="Path 272" d="M139.677,29.241h1.878c.018,1.374.729,2.041,1.858,2.041a1.678,1.678,0,0,0,1.824-1.831c0-2.652-5.341-2.805-5.341-6.773a3.275,3.275,0,0,1,3.5-3.377c2.187,0,3.5,1.469,3.553,3.74h-1.877c-.037-1.279-.675-1.889-1.659-1.889a1.48,1.48,0,0,0-1.64,1.565c0,2.613,5.359,2.613,5.359,6.754a3.53,3.53,0,0,1-3.719,3.683c-2.259,0-3.718-1.469-3.736-3.912" transform="translate(10.63 2.134)" fill="#464545"></path>
      <path id="Path_273" data-name="Path 273" d="M148.059,28.973v-5.5c0-2.709,1.44-4.178,3.681-4.178,2.315,0,3.682,1.45,3.791,4.1H153.71c-.11-1.565-.766-2.271-1.988-2.271-1.075,0-1.786.744-1.786,2.347v5.5c0,1.584.711,2.328,1.823,2.328,1.24,0,1.9-.725,2.023-2.251H155.6c-.128,2.633-1.495,4.083-3.846,4.083-2.242,0-3.7-1.468-3.7-4.159" transform="translate(11.268 2.134)" fill="#464545"></path>
      <rect id="Rectangle_197" data-name="Rectangle 197" width="1.841" height="13.356" transform="translate(168.597 21.682)" fill="#464545"></rect>
      <path id="Path_274" data-name="Path 274" d="M166.866,31.067v1.812h-6.434V19.523h6.252v1.814h-4.411v3.873h4.064v1.775h-4.064v4.083Z" transform="translate(12.21 2.159)" fill="#464545"></path>
      <path id="Path_275" data-name="Path 275" d="M175.652,19.524V32.88h-1.841l-2.843-6.545c-.383-.992-.911-2.384-1.22-3.243l-.055.038c.127,1.335.218,3.338.218,4.6V32.88h-1.823V19.524h1.841l2.933,6.811c.384.9.858,2.137,1.167,2.939l.055-.039c-.145-1.316-.254-3.32-.254-4.5V19.524Z" transform="translate(12.792 2.159)" fill="#464545"></path>
      <path id="Path_276" data-name="Path 276" d="M176.973,28.973v-5.5c0-2.709,1.44-4.178,3.681-4.178,2.315,0,3.682,1.45,3.791,4.1h-1.822c-.11-1.565-.766-2.271-1.988-2.271-1.075,0-1.786.744-1.786,2.347v5.5c0,1.584.711,2.328,1.823,2.328,1.24,0,1.9-.725,2.023-2.251h1.823c-.128,2.633-1.495,4.083-3.846,4.083-2.242,0-3.7-1.468-3.7-4.159" transform="translate(13.469 2.134)" fill="#464545"></path>
      <path id="Path_277" data-name="Path 277" d="M192.021,31.067v1.812h-6.434V19.523h6.252v1.814h-4.411v3.873h4.064v1.775h-4.064v4.083Z" transform="translate(14.124 2.159)" fill="#464545"></path>
      <path id="Path_278" data-name="Path 278" d="M192.757,29.241h1.878c.018,1.374.729,2.041,1.858,2.041a1.678,1.678,0,0,0,1.824-1.831c0-2.652-5.341-2.805-5.341-6.773a3.275,3.275,0,0,1,3.5-3.377c2.187,0,3.5,1.469,3.553,3.74h-1.877c-.037-1.279-.675-1.889-1.659-1.889a1.48,1.48,0,0,0-1.64,1.565c0,2.613,5.358,2.613,5.358,6.754a3.53,3.53,0,0,1-3.718,3.683c-2.259,0-3.718-1.469-3.736-3.912" transform="translate(14.67 2.134)" fill="#464545"></path>
      <rect id="Rectangle_198" data-name="Rectangle 198" width="1.886" height="13.496" transform="translate(68.616 43.245)" fill="#464545"></rect>
      <path id="Path_279" data-name="Path 279" d="M75.683,38.939v13.5H73.8l-2.915-6.614c-.392-1-.934-2.409-1.25-3.277l-.057.039c.131,1.349.225,3.374.225,4.647v5.205H67.93v-13.5h1.887l3.008,6.882c.393.907.878,2.16,1.2,2.97l.056-.039c-.15-1.329-.261-3.354-.261-4.55V38.939Z" transform="translate(5.17 4.306)" fill="#464545"></path>
      <path id="Path_280" data-name="Path 280" d="M93.979,38.939l-2.932,13.5H89.029l-1.27-5.957a35.511,35.511,0,0,1-.617-4.338h-.075a39.72,39.72,0,0,1-.635,4.338l-1.27,5.957H83.144l-2.933-13.5h1.962l1.345,7.384c.169.983.485,2.738.6,3.585h.074c.112-.847.393-2.505.6-3.682L86.1,39.151h2L89.4,46.227c.2,1.176.484,2.834.6,3.682h.074c.112-.847.43-2.6.6-3.585l1.344-7.384Z" transform="translate(6.104 4.306)" fill="#464545"></path>
      <path id="Path_281" data-name="Path 281" d="M99.2,49.716H95.741l-.6,2.718H93.163l3.289-13.495h2.036l3.288,13.495H99.813ZM98.805,47.9l-.822-3.625c-.187-.886-.393-2.179-.486-2.891h-.055c-.094.712-.281,2-.486,2.891l-.8,3.625Z" transform="translate(7.09 4.306)" fill="#464545"></path>
      <path id="Path_282" data-name="Path 282" d="M105.984,47.538h-1.177v4.9H102.92v-13.5H106.3c2.5,0,3.922,1.543,3.922,4.222,0,2.1-.859,3.547-2.353,4.106l2.84,5.168h-2.092Zm-1.177-1.851h1.457c1.327,0,2.018-.887,2.018-2.487s-.691-2.41-2-2.41h-1.476Z" transform="translate(7.833 4.306)" fill="#464545"></path>
      <path id="Path_283" data-name="Path 283" d="M111.252,48.758h1.924c.018,1.388.747,2.062,1.9,2.062a1.706,1.706,0,0,0,1.868-1.85c0-2.68-5.473-2.834-5.473-6.845a3.335,3.335,0,0,1,3.587-3.412c2.242,0,3.587,1.484,3.643,3.778h-1.924c-.038-1.292-.691-1.908-1.7-1.908a1.507,1.507,0,0,0-1.681,1.58c0,2.642,5.492,2.642,5.492,6.825a3.822,3.822,0,1,1-7.64-.231" transform="translate(8.467 4.281)" fill="#464545"></path>
      <path id="Path_284" data-name="Path 284" d="M125.464,49.716h-3.456l-.6,2.718h-1.981l3.289-13.495h2.036l3.288,13.495h-1.962Zm-.393-1.812-.822-3.625c-.187-.886-.393-2.179-.486-2.891h-.055c-.094.712-.281,2-.486,2.891l-.8,3.625Z" transform="translate(9.089 4.306)" fill="#464545"></path>
      <path id="Path_285" data-name="Path 285" d="M141.373,38.939l-2.933,13.5h-2.018l-1.27-5.957a35.936,35.936,0,0,1-.617-4.338h-.075a39.718,39.718,0,0,1-.635,4.338l-1.27,5.957h-2.018l-2.932-13.5h1.961l1.345,7.384c.169.983.486,2.738.6,3.585h.075c.112-.847.393-2.505.6-3.682l1.307-7.076h2l1.309,7.076c.206,1.176.485,2.834.6,3.682h.075c.111-.847.429-2.6.6-3.585l1.345-7.384Z" transform="translate(9.711 4.306)" fill="#464545"></path>
    </g>
  </g>
</svg>
